<?xml version="1.0" encoding="utf-8" ?>
<svg baseProfile="full" height="50" version="1.1" viewBox="0 0 500 50" width="100%" xmlns="http://www.w3.org/2000/svg" xmlns:ev="http://www.w3.org/2001/xml-events" xmlns:xlink="http://www.w3.org/1999/xlink"><defs /><path d="M0,0 L0,50.00 L0.00,50.00 L5.05,50.00 L10.10,50.00 L15.15,50.00 L20.20,50.00 L25.25,50.00 L30.30,50.00 L35.35,50.00 L40.40,50.00 L45.45,50.00 L50.51,50.00 L55.56,50.00 L60.61,50.00 L65.66,50.00 L70.71,50.00 L75.76,50.00 L80.81,50.00 L85.86,50.00 L90.91,50.00 L95.96,50.00 L101.01,50.00 L106.06,50.00 L111.11,50.00 L116.16,50.00 L121.21,50.00 L126.26,50.00 L131.31,50.00 L136.36,50.00 L141.41,50.00 L146.46,50.00 L151.52,50.00 L156.57,50.00 L161.62,50.00 L166.67,50.00 L171.72,50.00 L176.77,50.00 L181.82,50.00 L186.87,50.00 L191.92,50.00 L196.97,50.00 L202.02,50.00 L207.07,50.00 L212.12,50.00 L217.17,50.00 L222.22,50.00 L227.27,50.00 L232.32,50.00 L237.37,50.00 L242.42,50.00 L247.47,50.00 L252.53,50.00 L257.58,50.00 L262.63,50.00 L267.68,50.00 L272.73,50.00 L277.78,50.00 L282.83,50.00 L287.88,50.00 L292.93,50.00 L297.98,50.00 L303.03,50.00 L308.08,50.00 L313.13,50.00 L318.18,50.00 L323.23,50.00 L328.28,50.00 L333.33,50.00 L338.38,50.00 L343.43,50.00 L348.48,50.00 L353.54,50.00 L358.59,50.00 L363.64,50.00 L368.69,50.00 L373.74,50.00 L378.79,50.00 L383.84,50.00 L388.89,50.00 L393.94,50.00 L398.99,50.00 L404.04,50.00 L409.09,50.00 L414.14,50.00 L419.19,50.00 L424.24,50.00 L429.29,50.00 L434.34,50.00 L439.39,50.00 L444.44,50.00 L449.49,50.00 L454.55,50.00 L459.60,50.00 L464.65,50.00 L469.70,50.00 L474.75,50.00 L479.80,50.00 L484.85,50.00 L489.90,50.00 L494.95,50.00 L500.00,50.00 L500,0 Z" fill="#7b6b5d" /></svg>